<svg width="1440" height="628" viewBox="0 0 1440 628" fill="none" xmlns="http://www.w3.org/2000/svg">
<rect x="-13" width="1455" height="628" fill="#AF7601" fill-opacity="0.4"/>
<rect x="-13" width="1455" height="628" fill="url(#paint0_linear_69_89)" fill-opacity="0.5"/>
<rect x="791" y="378" width="293" height="70" rx="35" fill="#BFBC4B"/>
<path d="M836.104 414.352C837.384 414.757 838.387 415.44 839.112 416.4C839.837 417.339 840.2 418.501 840.2 419.888C840.2 421.851 839.432 423.365 837.896 424.432C836.381 425.477 834.163 426 831.24 426H819.656V403.6H830.6C833.331 403.6 835.421 404.123 836.872 405.168C838.344 406.213 839.08 407.632 839.08 409.424C839.08 410.512 838.813 411.483 838.28 412.336C837.768 413.189 837.043 413.861 836.104 414.352ZM824.808 407.504V412.784H829.96C831.24 412.784 832.211 412.56 832.872 412.112C833.533 411.664 833.864 411.003 833.864 410.128C833.864 409.253 833.533 408.603 832.872 408.176C832.211 407.728 831.24 407.504 829.96 407.504H824.808ZM830.856 422.096C832.221 422.096 833.245 421.872 833.928 421.424C834.632 420.976 834.984 420.283 834.984 419.344C834.984 417.488 833.608 416.56 830.856 416.56H824.808V422.096H830.856ZM857.853 426.384C855.527 426.384 853.426 425.883 851.549 424.88C849.693 423.877 848.231 422.501 847.165 420.752C846.119 418.981 845.597 416.997 845.597 414.8C845.597 412.603 846.119 410.629 847.165 408.88C848.231 407.109 849.693 405.723 851.549 404.72C853.426 403.717 855.527 403.216 857.853 403.216C860.178 403.216 862.269 403.717 864.125 404.72C865.981 405.723 867.442 407.109 868.509 408.88C869.575 410.629 870.109 412.603 870.109 414.8C870.109 416.997 869.575 418.981 868.509 420.752C867.442 422.501 865.981 423.877 864.125 424.88C862.269 425.883 860.178 426.384 857.853 426.384ZM857.853 421.968C859.175 421.968 860.37 421.669 861.437 421.072C862.503 420.453 863.335 419.6 863.933 418.512C864.551 417.424 864.861 416.187 864.861 414.8C864.861 413.413 864.551 412.176 863.933 411.088C863.335 410 862.503 409.157 861.437 408.56C860.37 407.941 859.175 407.632 857.853 407.632C856.53 407.632 855.335 407.941 854.269 408.56C853.202 409.157 852.359 410 851.741 411.088C851.143 412.176 850.845 413.413 850.845 414.8C850.845 416.187 851.143 417.424 851.741 418.512C852.359 419.6 853.202 420.453 854.269 421.072C855.335 421.669 856.53 421.968 857.853 421.968ZM887.733 426.384C885.407 426.384 883.306 425.883 881.429 424.88C879.573 423.877 878.111 422.501 877.045 420.752C875.999 418.981 875.477 416.997 875.477 414.8C875.477 412.603 875.999 410.629 877.045 408.88C878.111 407.109 879.573 405.723 881.429 404.72C883.306 403.717 885.407 403.216 887.733 403.216C890.058 403.216 892.149 403.717 894.005 404.72C895.861 405.723 897.322 407.109 898.389 408.88C899.455 410.629 899.989 412.603 899.989 414.8C899.989 416.997 899.455 418.981 898.389 420.752C897.322 422.501 895.861 423.877 894.005 424.88C892.149 425.883 890.058 426.384 887.733 426.384ZM887.733 421.968C889.055 421.968 890.25 421.669 891.317 421.072C892.383 420.453 893.215 419.6 893.813 418.512C894.431 417.424 894.741 416.187 894.741 414.8C894.741 413.413 894.431 412.176 893.813 411.088C893.215 410 892.383 409.157 891.317 408.56C890.25 407.941 889.055 407.632 887.733 407.632C886.41 407.632 885.215 407.941 884.149 408.56C883.082 409.157 882.239 410 881.621 411.088C881.023 412.176 880.725 413.413 880.725 414.8C880.725 416.187 881.023 417.424 881.621 418.512C882.239 419.6 883.082 420.453 884.149 421.072C885.215 421.669 886.41 421.968 887.733 421.968ZM914.925 417.2L911.917 420.336V426H906.765V403.6H911.917V414.064L921.837 403.6H927.597L918.317 413.584L928.141 426H922.093L914.925 417.2ZM965.819 403.6V426H961.563L950.395 412.4V426H945.275V403.6H949.563L960.699 417.2V403.6H965.819ZM984.846 426.384C982.521 426.384 980.42 425.883 978.542 424.88C976.686 423.877 975.225 422.501 974.158 420.752C973.113 418.981 972.59 416.997 972.59 414.8C972.59 412.603 973.113 410.629 974.158 408.88C975.225 407.109 976.686 405.723 978.542 404.72C980.42 403.717 982.521 403.216 984.846 403.216C987.172 403.216 989.262 403.717 991.118 404.72C992.975 405.723 994.436 407.109 995.503 408.88C996.569 410.629 997.103 412.603 997.103 414.8C997.103 416.997 996.569 418.981 995.503 420.752C994.436 422.501 992.975 423.877 991.118 424.88C989.262 425.883 987.172 426.384 984.846 426.384ZM984.846 421.968C986.169 421.968 987.364 421.669 988.431 421.072C989.497 420.453 990.329 419.6 990.927 418.512C991.545 417.424 991.854 416.187 991.854 414.8C991.854 413.413 991.545 412.176 990.927 411.088C990.329 410 989.497 409.157 988.431 408.56C987.364 407.941 986.169 407.632 984.846 407.632C983.524 407.632 982.329 407.941 981.262 408.56C980.196 409.157 979.353 410 978.734 411.088C978.137 412.176 977.838 413.413 977.838 414.8C977.838 416.187 978.137 417.424 978.734 418.512C979.353 419.6 980.196 420.453 981.262 421.072C982.329 421.669 983.524 421.968 984.846 421.968ZM1036.98 403.6L1029.66 426H1024.09L1019.16 410.832L1014.07 426H1008.54L1001.18 403.6H1006.55L1011.61 419.344L1016.89 403.6H1021.69L1026.81 419.472L1032.02 403.6H1036.98ZM1042.55 403.6H1048.5L1047.51 418.224H1043.54L1042.55 403.6ZM1045.52 426.256C1044.65 426.256 1043.91 425.979 1043.32 425.424C1042.74 424.848 1042.45 424.155 1042.45 423.344C1042.45 422.533 1042.74 421.861 1043.32 421.328C1043.89 420.773 1044.63 420.496 1045.52 420.496C1046.42 420.496 1047.16 420.773 1047.73 421.328C1048.31 421.861 1048.6 422.533 1048.6 423.344C1048.6 424.155 1048.3 424.848 1047.7 425.424C1047.12 425.979 1046.4 426.256 1045.52 426.256Z" fill="#504E00"/>
<defs>
<linearGradient id="paint0_linear_69_89" x1="-13" y1="314" x2="1442" y2="314" gradientUnits="userSpaceOnUse">
<stop stop-color="#E05866"/>
<stop offset="1" stop-color="#FF010D"/>
</linearGradient>
</defs>
</svg>
